<?xml version="1.0" encoding="UTF-8" standalone="no"?>
<!DOCTYPE svg PUBLIC "-//W3C//DTD SVG 1.1//EN" "http://www.w3.org/Graphics/SVG/1.1/DTD/svg11.dtd">
<svg xmlns="http://www.w3.org/2000/svg" version="1.1" xmlns:xlink="http://www.w3.org/1999/xlink" width="650px" height="3030.0px">
<style>text {font-family:PingFangSC-Regular, Microsoft YaHei, 'Hiragino Sans GB', Helvetica; ;font-size:14px;fill:#333;}</style>
	<text x="0" y="45">刃庄蚁届颠杨污区委烈堆秃辟踢霸骗帐岛址端警边琴便搜具怀际绿知落走练垄滴锦升趁振政枯观</text>
	<text x="0" y="92">峰狐骡仁剑绞饲指性臂改秩细甩金民蛮邀涂悬馆吸屑识可旋盈睛艳扁签孩作付恢岔外虫俱含各薯</text>
	<text x="0" y="141">臣几讨仰乞币昏诱狡荣锯骆闪信填胃恼字沈朵竖揭损武雾共挺鸡寸财芳塑长模渠然碌研筋姜何来</text>
	<text x="0" y="187">葬越航居肆穿拳末红儿欣尸堵实崭豆压扛素构工盲箩零玩否穷以竞甜烦绝坊陶涌催施抄醉捐厂调</text>
	<text x="0" y="227">鱼暗扩纠置乒业营晓亦坛搬粪滥将密遥桐堤哨晶桌飞碰游柏咸分铁垒魄杂泄吼瓜凉唱诸汽辫天神</text>
	<text x="0" y="274">宣匀泽版桥给浆式倚本邮胳位危税批话奉揪留雁榴迷操案差寨周逗散难充但师督佛迈描桑香缎执</text>
	<text x="0" y="307">隆柄旨用农遭蜓消逐啊谊递飘呢怕快病混埋袋异驾纷茧扔蔑衰据疾阿普轨编读李健衡涉队樱存篮</text>
	<text x="0" y="348">妙仙换芦己染筝慢寒图欧王掠滑惠蚕摸阅鸣爸栏倍尼仇胸河虏有棉带由部趟摆奥味钞窃城门愿棵</text>
	<text x="0" y="388">久晋碗从栽卜饰昆东寺敲盏估甲独固饼娇怖惯逼服陡采黑藏舟泊累测送桃勾同悔父场票某全要拴</text>
	<text x="0" y="432">种滔备镜仔轮呈乙劲驱浙楚惕鉴弯蚊妨岂披躬设渗蝇脂责哈夏陵乡傻丢根失口趋培扣景汇姥劳兆</text>
	<text x="0" y="477">另爱胁注勇榜献链碎样蹈怨吊表件恭茄妖道此晚摘盒漏邪渣奖亭澡鞋避晃泰泻辩厘输魔革册春梅</text>
	<text x="0" y="519">觉疮怎壶歌肾川骑拣洗坏裙楼循别忌葵倡顶母脾商叛植蒸码俭布奏战林晒先康抚隙铜新策极误若</text>
	<text x="0" y="551">炎椅诵帽筑谈优赴摊脑热质阀凤侨仪深检互蹄煌痕郎封技卵项朝摇翠扎如掏吐往花朋爪斑装榨艘</text>
	<text x="0" y="601">背垃隶试旷卖液贿环镰泉亿捕傅迟歉巾惜答奴遣乔恐大融戏滩屯渡掉障圈禁窜歇制前耐敢低橘庆</text>
	<text x="0" y="641">屈垮聋熔医棋鄙现午宴予徒咱安挂桂翁鹿忘译腰既抛浸犹肿摩幸弃耍器死拔广赔益止嚼诚沟剩墙</text>
	<text x="0" y="685">士峡淋鹅祝挎宋乏牢登贴茎洒舒华纤判枪帅领乓略影棕壳星亮侄尤牵抱斧璃巡拾汉探叼层唯蝴曾</text>
	<text x="0" y="718">猪监视纺减缠今即骤启陆街绕贷酿搂赠预侮类积能驰等平虑艺桨牲赖舅稍机光剃扬开揉删衣骨酷</text>
	<text x="0" y="766">保甚慌息凳菜击晌界荡确成韵适瞒赌刷猎纵很美许移贤朴北棒爹鲁妈盛孟肯锋朱娱驳屋淹巧僚五</text>
	<text x="0" y="797">孔州键西饺亩进疲驻它贸总罪这到斤怜妥嘴彩反梢提稠痰撇座望团脖夜围说空苦秀救肉均拉谷膀</text>
	<text x="0" y="836">妄偿猜盯伸湾磁追携什厦网所匪鞠替屿男萍震叠恶犬遵胶岩评犯近氏蛛限咽伏罗石滨险棍些胀概</text>
	<text x="0" y="885">滚室裂须卸验喷默题蓬沙兽狂炕嫂瞎灶况田逮阴修承建紧克厨蔬绳万牛跑或历醒鬼赢储趴额木柿</text>
	<text x="0" y="929">海秒卷浴漆降贡贩腐我力流搭他胖肝主党申钢随刚坐两良荒创扇钳迁写舞塔叶喘恩款圣笋简迅捎</text>
	<text x="0" y="966">杰算穗瓶戴晕泛塘船囊皂淘标愤辉漠洁扭待呼皆冈联宰脱碍慨维公旺龟霜轻伍削起惨兴侦冒敬着</text>
	<text x="0" y="1006">软并讯赚馒螺烛盾时灯膜氧论负趣挨砖达阶朽撑耳诉至庭抬俯照脆老群滋泳锻决争是物帆被一钥</text>
	<text x="0" y="1050">胞郑抗喇途免延宝堂丽伙愁找妹津之响溪校举患狸育易焦誉莲协则户官餐受虚仅桶蹦爆谎轧阔婆</text>
	<text x="0" y="1086">弹狼捧激毕出珍钓嗽犁日态认恨寇葛担玉急条脸费肠帘材僻显蚀库树拼咏遮再凑皇原访嫁骂子目</text>
	<text x="0" y="1122">傲叹仓屡离耽佩幕园贝筒怪酸透那军孝尚辽好昨扰挖蔽瓦冬渐促锹刻兄繁摄鼻倒恒介锄瞧驼司漫</text>
	<text x="0" y="1171">向鹊增墨蒜选授矿火绢寄报正厚划燃凶她奶钻膛面戒附葱梦锣梁狱挡饭蕉悼茫副厕入颈方赏盐系</text>
	<text x="0" y="1216">体沿了拒江钱忧宿胆惰求愈捏躲婚粘亚律俘尾瓣书兔破辈较半净柳远仿筐经孙幼应谣草糠腔少省</text>
	<text x="0" y="1257">绸逃迫撤站匹钟狭满畅沫咬狗翻肩想尽侵港牙型贫崖源虽托吧井特皱敞祸召敌铃腊饶宽栋自赶古</text>
	<text x="0" y="1291">无拆杀湿却尿逆械祖崇米涛顿笨歪整雪惑哗羽油射纪奇闯护索看溉发慧徐罩闭灿把慰搏邻番职逢</text>
	<text x="0" y="1324">虎唇夺引搞饮刮瘦忍佣驴役片劝陪双挥姓涝更芬释梯玻叨痒德典鞭宗债辱籍寿锤讽肢风退雹姐单</text>
	<text x="0" y="1355">雨贼怠非严砍寻竭雷杜腿君硬对烫粗锈三慕灵下慎角润初拿旅姨慈羊蒙弟哀份线洋忆姿砌脉闹帖</text>
	<text x="0" y="1388">捆胡播踪咳示篇膝于临吨加巴者青泪垫汪虹般斜谁剪猴回裹萄芒央画擦膨疫袍后熄社塞扮太堪笛</text>
	<text x="0" y="1426">规妇终形希膊撞缓钩箭夸内俊椒白记状左黄丁枕柱裤丧跨饥乃凭盖弄絮掀拌猫只祥遗毙上塌巷间</text>
	<text x="0" y="1464">尺招舍诗章矩产牌节驶摔获缩情院微格抢土齐洽袖湖仆里法推煤利纯洪陈屠浇愚友臭熊胜阁狮代</text>
	<text x="0" y="1501">张毛谜拐教伪假赞饱裕竹幅坦域笔努匆博每伯浓页恋肺境磨刑连择隐炉令漂跟乖又私倦哥颤六售</text>
	<text x="0" y="1545">衬跌悦碧惹拥喝唉奋援禾血哑词挣缺娃秋殃誓暂货佳馋麻岁秧践眯纸圆纱声鲜翼挑必盼苍锅糟纹</text>
	<text x="0" y="1581">堡廊厉宏鼓斩考在握毫躺弓晨株猾煎且逝十波蚂名见拖谦割袄立旦阻挤斥幻鹰叙浪涨录绒络步冠</text>
	<text x="0" y="1626">符捉水剂候炼变侍织详败资静吩档壮议艇酒掘除窗灭演蜘横辛顺兰彼级惭盟勺山懒猛宵龙舌术麦</text>
	<text x="0" y="1668">迎僵茅筹二芹谅身文距交唐攻槽拘依重串侧朗薪乳框丈础亏羡潜颂仗挠刺气怒啄凝解似谨基闲洞</text>
	<text x="0" y="1701">组览收真忠列头灌敏肥绵童参未菌触统弦述察药姻守喉功匙浩缴还占泡善银掌都饿究枝娘也学垦</text>
	<text x="0" y="1751">烧绑奔段集嗓顾完炒其粒钉京众宇粱腹豪痛缝颗食松冶脏炭铅沃绪掩配苹劈坟冷抵鸦称英膏苏宁</text>
	<text x="0" y="1786">辰感洲墓偏致悟吓冤毅夫永吉拨粥你弊贺董纳裳绣始治婶腥毁泼悲艰员断御丙蓝骄丹撒排浮跪畏</text>
	<text x="0" y="1833">顽亲径丘习欠持数燕局村乱伞哭霉告店杆蜜丑租伤结订蜂中专妻摧秤倘清吞汤去电剥烂畜丸聚住</text>
	<text x="0" y="1867">废听枣盘疆轿疼脊疯床早量耻芽葡野音谢乐让悄剖巨躁姑皮酬人运史底贵季夕借羞任狠俩晴绍叔</text>
	<text x="0" y="1911">女宾通球百鸟喂元买滤强辣乎丝卫势坝糕嫌欢家笑训戚点尖语拦黎叫伶询伴锡焰七煮才券帜肌已</text>
	<text x="0" y="1943">首心吵勤放搁睡惩萝暮效雕甘办养贱不证睬旗直烤坚霞哄返凯及凡坑手虾匠温励相龄圾兼取柔纽</text>
	<text x="0" y="1983">吗违爬房炮薄暴思鸽竟靠耗谱允厅眼蛇悠盆吃肃准冻班意架化贞瑞复诞蹲亡浊腾雀牧得停箱燥礼</text>
	<text x="0" y="2027">夹馅的挽眉彻九念吴廉乌浑率跳坡舱请志露脚撕宜肚眨倾禽精蓄殿袭筛右包帝多宫蛙闸干疗窄闻</text>
	<text x="0" y="2076">折马杠贯紫矛铺呆岸阳炸比客笼度接壁茂故们尝跃扶套醋做云劫哪雅耀镇卡嘱赵没遇容稿约赤咐</text>
	<text x="0" y="2119">序世理衔为汁尘喜池迹袜症雄昼秘截台刀果柴粉投挪梨傍纲短矮疑句窑捷森讲查板碑斗添嚷派小</text>
	<text x="0" y="2151">覆课辞毯愉聪贪拢潮著勿最动核菠与庙锁突乘巩稼活务宪扫橡造使卧旁耕槐棚品懂控稻铸刘竿殊</text>
	<text x="0" y="2186">芝貌呜导年轰忙悉防命月股支闷定勉锐路沉八传旱福酱括仍愧需打郊处舰垂智踏么合会偶沾按睁</text>
	<text x="0" y="2230">罢南购罚蜻珠蝶绩翅奸程续榆四辨行归罐休捡济眠鼠尊蛾穴孤陷荐余杯生地灾嘉杏象辜计俗攀稳</text>
	<text x="0" y="2262">害溜欺像惧抓沸载号明泥车疤呀毒宅偷切陕抹属扯您岗莫隔范转值柜熟科灰淡渴展超旬抖栗兵管</text>
	<text x="0" y="2298">个当享残冲捞言粮茶色弱市唤惊孕萌烟足菊牺错威诊例秆嫩族县恳苗和束抽汗扑岭斯伐剧旧押供</text>
	<text x="0" y="2339">忽继映暑高蜡昂踩糊补帮爽缘哲析欲颜第庸富千府谋搅扒喊而疏铲荷衫昌权顷爷拍劣炊暖刊国关</text>
	<text x="0" y="2379">梳事吹叮叉齿宙窝拜浅阵销鸭速厌糖盗遍丛企针殖魂渔因常丰绘蛋恰伟歼问块次插辆席就助肤够</text>
	<text x="0" y="2415">辅裁价蠢曲征烘壤料过审冰稀缸期勒啦义该困赛</text>
</svg>