<?xml version="1.0" encoding="UTF-8" standalone="no"?>
<!DOCTYPE svg PUBLIC "-//W3C//DTD SVG 1.1//EN" "http://www.w3.org/Graphics/SVG/1.1/DTD/svg11.dtd">
<svg xmlns="http://www.w3.org/2000/svg" version="1.1" xmlns:xlink="http://www.w3.org/1999/xlink" width="650px" height="3030.0px">
<style>text {font-family:PingFangSC-Regular, Microsoft YaHei, 'Hiragino Sans GB', Helvetica; ;font-size:14px;fill:#333;}</style>
	<text x="0" y="39">恋缠统滋滨关梯饮笋伟任借逃营肤汇持踢商氏裤旗钞蹦公徐清请忙搂皂观敲炉辩只但秩豪替含穷</text>
	<text x="0" y="80">屡刻科始右董蝴博贞世牢躁限顾确摇睡病窝材电谱界节逗绣绩绸亲浸施拘似臭蛮懂烛蚀培牺赔丸</text>
	<text x="0" y="112">缺级扇萌觉坊罩宵扎坐壮跌硬皮唱功糊等播鄙滤脖怕辣撒穴输海胞仰火友妻涌集古丧内驼吩分丰</text>
	<text x="0" y="155">染衫倍锁多玩共扯即背腿社乞膝响得甩休梅销京蜻红肉铸涉鹿拾深跳该凑教斩挠应威彼予拿搭圾</text>
	<text x="0" y="191">因删盏症撤处震冠茎疗抛晴闯盯筒杯逮损霉屯骨渡蓝煤棵温邀江侄牌桶跨先行嘱详银堂繁纯翻纸</text>
	<text x="0" y="237">箭满干波羡肯根践称触狐近须宾签民雕魂欣漏茂龙子巧委造官诉直线缩骡枕珍走融思耻链柳塔虫</text>
	<text x="0" y="283">坝素爱哑插茶陪促舒同翁锹猾颂帝碎访爆芽二斜岁被碌腥继裂差甚铁族就存绑礼末作蒸艇腾虎揪</text>
	<text x="0" y="329">龄在拌按滑凶纠嫁鱼仓耳森竿斤纷易粉焦郊语叉肌旱送票慢省训孙值译显肥睛愚糠泊锦拣逝闸券</text>
	<text x="0" y="365">浪指参朴猎静感句植奥毒比纳残辰写传毅允赤广畜临秃耀岭刷另躲式帮烟欧炕兰形辉止捕乐吴碗</text>
	<text x="0" y="398">己跟答术免带纤运暂画晃扣籍雀屿各爽词革注净熟仆埋疏罗朽亏最刀匀且导拜咏叮后异登阔摧滔</text>
	<text x="0" y="430">灯寺剑润颈滥岗幼制艳牛洋拔索字孔慕寒蝶袍救尊粒针向获新摄肝膀读卧娃势达依慰梳于岛耕计</text>
	<text x="0" y="461">逼笛郑慨倘涝兴梨拍酒蕉左勺洁堪娘题拥历浓旺争阴朱渐胀妨我零珠甜待逆剩门贤享挡现尖车欠</text>
	<text x="0" y="511">堵诚福固毁烂境剖化怠袜推犁喘订包夸葱裹构给殿低献寄食督而辨膨切令托湖故检掌第僚荷权寻</text>
	<text x="0" y="553">纲美厘随六掘峡藏汪茫香杀掠卸桑糕政识孤匪情箩克较围惑程灰奖敞痕匠撑富裳嗽婚千豆侧扬糖</text>
	<text x="0" y="596">乳源受无芒忆脸尸枣俩钓屋抵佩首徒迎力消杆骄垄名照肆薪次累雅好凳众单凭诵考歼煮翠让朵磁</text>
	<text x="0" y="644">祖丑剥封陶审栽租惊渗军道召桌诸君机舞批雁胃密手秆股城抓到脊酿唇励嘉糟械列居挽割费摩矮</text>
	<text x="0" y="694">明馒示荒架叫投桂快柔眨犹农悼牲间环漠袭善坏数织膏础卡扑泥视段底业鸽阅吞置私挎疑秘影航</text>
	<text x="0" y="742">槐筐活猴史臣姜昂它宁祥井弟概小意宽市雾贺啄却艘荣湿侦慌提霜劝遥吉能府蹲刊算看面盖毙扶</text>
	<text x="0" y="774">脆耍笑榨伍况司企察赏党件认抽蛇头场迈篮溉招伏狂陡负披冶把瓜储页浴除劳夫炮养扛别及阀踩</text>
	<text x="0" y="812">心遇装犬外拉慈饿庭桃撇王星庄对摘书址风沾霞岩评仿缝帘宇剪中哄轨醒慎纱创侨油窑窜法使妖</text>
	<text x="0" y="852">貌扔罐哲聋誉露竭符彩狭者腐季浇常过笨瘦邻太掉秤原奔脑斧惨妄了壶卵枪驾仍贼校竖腹拼编恩</text>
	<text x="0" y="892">楼绒疤杠俱诗州盟唯战田绍稻扁押够扫绘焰肠际申患郎盘梢枝懒炼物钱敬水发振栗挥堆嘴锄泡演</text>
	<text x="0" y="931">佣怎歉韵猫半虑嚷寿伶喜眼需肩整南恶抄贵菜鸭接碧暖系普船剃话败津晓合魔姐们芳顷耐客英勤</text>
	<text x="0" y="964">缸团耽连禽宝录婆慧斗叔薄高聪揭烦旅姨挤废夕湾丈璃婶隶询晕睬加喂腔涂穿汉叹吧女芹卫欺论</text>
	<text x="0" y="998">宋蝇习队抢取汽粮幸括渔盆是悔罪鹰遮痰既疆孕裁泻溜玻略弄滴块尿浩驱生树犯茧唉估娇铅耗惠</text>
	<text x="0" y="1032">住雪信息币厌真并挂滩野层家锻闭瓣扩饲致怪棉片竟想旬图摊啊喷劫傲属隆钥奏液案追蛾坛饶杂</text>
	<text x="0" y="1064">探魄劈柄渣鸦份若吨皇眉厂悉窄贫技怨个谁弓床港侍桥掀弯昆恼苹洲阳园绢尾敏交胜像灭贯顽本</text>
	<text x="0" y="1103">芦碑漆搬莲讽隐绿棍惹北幕墓摆父护拢春余甘补何偏悄松象容谦西臂醉塌他开呆虹日尝傅蠢杨脏</text>
	<text x="0" y="1144">沸荡缘哨贪戴聚烤锐恐如乘候蛋赛三惜载熊铜槽驰洒悠吼炊布转举唤弊方坑协灾微恢大忧也斥精</text>
	<text x="0" y="1180">童著验伸局与饭樱亿虾霸苦哀凯序几蹄叠仗篇角兔血虏迁袄纵网离忠饺幻务缎壳夜睁凡光柏惧资</text>
	<text x="0" y="1227">烈还堡站伪厉着狠监旨陕泛般挑果戒狼熄否晨百鉴挪迷崇龟酷早佳筋宴县锈弃沉僵长寇其轰盗排</text>
	<text x="0" y="1264">胡武冒轮毯搏椅轿愤赵冤宫绕料侮棕贩暗脚忘财舰时猪衔和具惰阵国义医殃锤衣跑蚁厨流附治牵</text>
	<text x="0" y="1307">竞滚据逢哥尘朗可七乎码更细部歇产戏廊退副俊扰抹颗防镜燕厦破乃淘镇瞧浑踏仅援皆饱瞎毛鼓</text>
	<text x="0" y="1354">叙锯径钳椒辱色禁熔强样用虚亭套裙士驻烘喉旁避抗蜘姥钉川谜贸扒端蔑货年月短偿假骤撕傍趣</text>
	<text x="0" y="1393">磨攻琴菌馆洗拖污区定问姿宪垫萝雨酱轻脂帜雷筝预纺之华朋搁愉疮匹拳骑淋勾潜此基乱解狱灶</text>
	<text x="0" y="1433">姑步错绞刮赞弹课永林葡辈狗折研畅听库掩练狡刃一搜实亮甲上吊阻陈罚敢圣冰俘沟绵蜜软映座</text>
	<text x="0" y="1482">距握帐泪呀催笼胖德丹拒垃辞跪望芝悲号恳邮点宏漫沿迹代适已均念谣蚂打汗盾帽猜然择味元八</text>
	<text x="0" y="1532">恭畏金钢秀足自释浙今峰奇击升暴抖伞乓馋旧厚仙复万丛灌型穗志的测迟嚼景儿恨健悬移鞋效混</text>
	<text x="0" y="1564">见鬼山厅稀些栏坡诞筑削旋散跃没当遣涨便空卜柜闪安窃乌辛贱胁奴蚊殖旷剂增颠捉醋狮范炎砍</text>
	<text x="0" y="1606">乖挣骂岔某岂良闲倦勿衡档神馅她呈舟扭丁柴结锣白困服联趟巨碰格冷云柱横售有孩歌命遭枯唐</text>
	<text x="0" y="1645">歪兄驳隙苍驴奶难顺雄喝延酸垒拐恰游纪暮颤盐花什宗屠灵垮赚压镰孝绪冬胆束或陆痛齐少规粘</text>
	<text x="0" y="1676">保键驶违烧终吵舌茅派矿决伐谨仇失叶齿吹室述木东卷帅荐勇矛瓦地岸惩揉米捆午擦妇办丽草忌</text>
	<text x="0" y="1719">率翼桐赢牙嫩诱付非药前刘责堤反引期愁爪瓶劣勒呜灿买惯蔬下返垦邪辅谢肚那羊简挖沃钻告蓬</text>
	<text x="0" y="1751">晋热变叛议知域学兵税断册赠曲从渴昼人咐凤量未亚娱警采胳蜓阁羞双曾膛盼稼群肿骗互每缴搅</text>
	<text x="0" y="1801">铺淹很李气庆炭落蛛覆捷汤吓葵搞停证速呼划夹坟尤肾怖羽类圈葛筛咳捞立添袋都柿帆泽迅乙哗</text>
	<text x="0" y="1834">态飘牧循巷赶建体例超膊鞠职撞则障修昨蒜脉饰害脱鼠凝隔突遗赴险衬里利领标回裕锡承顶崖勉</text>
	<text x="0" y="1873">往品御屑匙卖欲奸填颜丘泉萍脾路仔怜担炒留啦旦谈桨坦蛙拆兆袖特讨又尼粗青班钩愈黑乡记进</text>
	<text x="0" y="1918">介宙辜沈街核偷皱所寨版猛眠找会幅智爸辫株攀刺沫出惭钟师誓完初策去茄舍氧阿远谊毕踪弱朝</text>
	<text x="0" y="1951">胸杏菊咸久这贴塞再降稿箱倒玉遍起咬纽斯表膜惕蚕收四瑞祝闻器讯巡燥劲剧努榜宜至蓄锅截说</text>
	<text x="0" y="1998">铃执敌蹈麦愧番鲜调倾粱绝动土俯姓要捐球鸣壤捡棚纹屈射晚口身您目疫希淡渠央哪疼典么潮俭</text>
	<text x="0" y="2034">侵挨死帖伤廉罢虽暑酬顿塑吸浆捎性愿楚殊疾涛崭赌俗冈台贡溪贿重蜡占张晒趁榆陵扮由怒妙痒</text>
	<text x="0" y="2084">嗓试守艰尚刑爹老奋奉启妈饥迫盈谅伯恒鲁辟昌趋祸铲疲边律窗弦尽咽垂矩雹周厕鼻伴苗墙准宣</text>
	<text x="0" y="2120">母浮紧棋妥夏闷额状餐育骆葬仁五许胶煎宅螺两尺宰杜僻汁宿肃操泼供维橘捧览天正控芬哈趴危</text>
	<text x="0" y="2164">院栋兽你倡泰役忍贷匆丙拨庸仪逐洽靠鹅欢杰相经偶嫂积怀禾债悟蔽浊泳盛浅轧眯冻村碍叼伙马</text>
	<text x="0" y="2210">菠途续飞遵炸谷抱悦腰梁乏鸡报喇届赖拦项絮九冲济闹稍设烫腊拴晌选鹊梦归减质塘躺巾舅成墨</text>
	<text x="0" y="2253">越改析狸谎粪麻黄讲必板工捏池丢平辽配肢判不独橡换言通斑河棒急躬挺充究吐理抬诊条辆咱盒</text>
	<text x="0" y="2303">衰鸟管佛倚价绳抚翅店声巩疯支总文摸傻肺串竹哭饼蒙粥户喊缓澡庙亦泄榴沙入亡贝授吃姻舱漂</text>
	<text x="0" y="2346">络燃莫框房乒锋展全透十严鞭瞒壁紫砖圆款来彻亩苏误笔巴激吗洪妹描度陷专嫌叨男做席爬坚模</text>
	<text x="0" y="2387">爷戚毫章乔秋秒极孟益黎忽查康默刚购求稠助事阶砌稳摔兼夺递洞谋备为将囊呢丝放晶萄种石盲</text>
	<text x="0" y="2433">寸位秧主约以员才组音征薯掏蜂凉优艺筹煌携昏</text>
</svg>