<?xml version="1.0" encoding="UTF-8" standalone="no"?>
<!DOCTYPE svg PUBLIC "-//W3C//DTD SVG 1.1//EN" "http://www.w3.org/Graphics/SVG/1.1/DTD/svg11.dtd">
<svg xmlns="http://www.w3.org/2000/svg" version="1.1" xmlns:xlink="http://www.w3.org/1999/xlink" width="650px" height="3030.0px">
<style>text {font-family:PingFangSC-Regular, Microsoft YaHei, 'Hiragino Sans GB', Helvetica; ;font-size:14px;fill:#333;}</style>
	<text x="0" y="37">担箱画易尊剑稍吉界删据倍冒档喘鹅返双剥睡祸出泻崖沟武三郑杏亦鲁遇塞弦讨或兆酸点令府来</text>
	<text x="0" y="81">旨律收治继程迹泡绳扩问袜彻减哀儿验真集阁楚傍差清肩黑诱李告融新仇给糕笨疯霉亲县耻占摇</text>
	<text x="0" y="117">巨挑积颈无促漆成班钱乎粱傅苦车屑骆驾蠢缝冬洪汤魄统掉偶丸腾砖专店栋棋疫见膜本诉魔燥杂</text>
	<text x="0" y="162">老亿萌城敞典衫悔面蹲障且笼降丧避东穗此刮纱扎岗赠喝猫神份择论寄旺元维而脚爷声罪慢钻甩</text>
	<text x="0" y="204">伏挥则膝孙蜜蛾缩朋弟顿窑宵型越邀红皇透锻霞仔广毯苹姨篇围窝张鹊羽披社鉴瞧筹倚物错意凉</text>
	<text x="0" y="240">浅姜枪荒赌庄默陷烤搭户宿歼仙在富练柱等顽绍柳湿务市洲曲岔杠松骑誉栽乐壮那盖致堡祝均盗</text>
	<text x="0" y="284">改呼贞想假摘谁罩掠役疼菜傲犯肤迎级实屡姑平骂浆原示稀何玉鼓庙帜劳金喇左漂便俱酒四禁枣</text>
	<text x="0" y="316">佩拔臭持兴氧攻娱初切挣山寺燕朴官士仿织操起启脉逆过们艺肯奶扰朱全共直矮摧虏丘矛予害倾</text>
	<text x="0" y="358">肥懒激诵恼膀腰晌矿境歪霸腊趟嫁幕斤唇悠乡萝衰顺讯捎甜以志色诚影扁属莲鹿吩鸦第晚杀歉恋</text>
	<text x="0" y="396">安鞠牛植口塑代胞另贩轿汪鸽楼序蜡苏下然资滚览善忌撕凯昌刊做追绸赶景特涌好爹絮惹劣席详</text>
	<text x="0" y="445">养昨顾斗立爽搁弃毕菠蜻哑椒掩外酷怖到臂别幼颂洞茄撤君耕极独体脂痰随朝一厘尝吼达技创毅</text>
	<text x="0" y="487">棒火鹰链微裳椅脖盆瓶组络旅酬嘴打决京亩昂舟聋估貌猛济弄扯束移报蓝畅块闻掀训木登华她圆</text>
	<text x="0" y="518">传筐相肺迈修男黎寒考脏湾坐你编叹挠拾妨骡焦馅码雨辱裕芹弊卷校睬需绘辰桥铃血盏诗划找泄</text>
	<text x="0" y="561">亚叮旬撑蹄淡即梁对炒镰副丝址滔瞒揉刃关匆私卸夺灾孩申窄井桌礼柿舍箭倒妄都杨袭拐条袋盐</text>
	<text x="0" y="601">友五殿牧探工窃匠权利这凭妖渠巴鼠励马桂僵嗓晨疾悲锋拢住蛮跌烦锐江候灿授伐剂宁贡警浮侨</text>
	<text x="0" y="639">凤痒池吧语巷沿状次菊糟妇翠闯糖忧拒芝首刷太芽政英偷两旧辉杜乏田智践质聚伴福荡诞狼厚奴</text>
	<text x="0" y="677">千破颗站化谈佛斑呜乔射阻玩啦昏寇暴小胁枝投邮迫薯忠配渗崇龟遵银守层惨棕液搞奸铸炎磨粒</text>
	<text x="0" y="717">完里卵批音轰俩仆叔损测懂短味库买咱狮态渐秀吴压敏其辣尼式厦干渔岭教猎绩梅伟处鬼宾夕锡</text>
	<text x="0" y="748">斧韵涉贸休奖街纸帐咽岛按急祖常谣躲南飘孤泉云产仁羊梳贿犁艘孝烧劫光澡豪蚀丽穷叛尘芳驶</text>
	<text x="0" y="784">炼早框届并省陆押灯督世欠身晋肠虚挖猜几还若正陶说之司肿瑞洗征留爪现院鄙呀嫌耍逮痕名径</text>
	<text x="0" y="830">毙斯锄钢稠回娘敢滴撒尸菌它廊称旁锤童泰年既冶位子伸和脑粪搂德哄铅馒瘦轮冈桨汁串向叼蜂</text>
	<text x="0" y="872">胡课服痛展凳玻泼伞惩冷眉补鞭二观戚费再竹尺煮仰抱炊取蒸呢疗轻室容踩甚月党辞柏检钳边核</text>
	<text x="0" y="921">恨赤尾粘衔俯浊盼粉磁帮领折勒捐团竞调营纠泥数字后保奇送吃眠读愉犬归段阵循仅援末国抵洁</text>
	<text x="0" y="960">心忍搬法宽比预米浸建扮禾麦置科角岸消兼沉由企载又顷俘绝屯贵闸球紫步朽勤伯众量具慧斜宴</text>
	<text x="0" y="997">证烂咐帅屈珍充坟始吨路雁叫臣曾奋杰拖宇寿沸歇献穿姿捧理秋台铜却耗跟伤挤断撞赴谱抛哭狸</text>
	<text x="0" y="1044">岂俗厨网削己香孔异虾否沃稼非夹拨莫药文岩电刺愤辽抗得是兽判扭康狐半乌竟翅蓄承梨炕版凝</text>
	<text x="0" y="1079">荷阅卫溜蔑氏视株毒钟培旷烘戏怪珠让胳纽爸刻推恐春绕牌感缴棵怨碰替为馋护辟贱叉槽荐遭放</text>
	<text x="0" y="1127">约宪膏嚼客解缓个床蛙规壳海亡接姓淹截撇谦聪些姥颜壁祥龙储挨册中宋通满白性局炮震膊带餐</text>
	<text x="0" y="1176">节谷腹道妈榜捆选恩源隙钉勉妥引扛抓穴待匙雅埋攀允股卡乳辜匹狱啊环圣隐渴侦族宗夫长蔬泪</text>
	<text x="0" y="1223">区久怜肚缘冻瞎虹羡葬蛇汉往摊毫仪整结吓晕哲隔厌模密帆学刚先延故渣介肃耀般麻育享陕封眼</text>
	<text x="0" y="1269">扫庸扬度缺自答贫睁尤近摆柴叠喂民牺浑记裂免糊听军素皂轧迷盈星间妻丢绒地流锦演摩风怒作</text>
	<text x="0" y="1302">秧跪偏述惰佳碎逝凡坦泽猴淘浇熄孟各被煌赖涂绿猾垄请捏堂润叨歌僚施谨缠念存漏足戒湖慨浙</text>
	<text x="0" y="1334">剖彼伪装灵胖根涨跑蝶吸牲会够赏抽杯管言竿帝葱摸砌振翁纷虑难谎购爆裹架战梦瓣查阔脾落形</text>
	<text x="0" y="1368">牙币普挂朵脆支永依捕蚕索主柜逃峡雪腐乖豆空讽终盘遥日尽乱很柄芦散因嘱插狠加最母陪吹爬</text>
	<text x="0" y="1417">坡乒盒忙搅泊重静饭齿革剧琴兰帘隶宣逐列略厅石执丙哥种委拥滤挽摄求于古耳牢帽罚表吞醋止</text>
	<text x="0" y="1459">途鞋悼疤畜研伍笔赔坑写铺悉遗章弱汽谊蓬桑势医踏绣榨毛雄垦覆梢茂枕侄皱拴甲家袖招茫益窜</text>
	<text x="0" y="1495">构董森愚今显惊尖眯线人劈款计航抄野旗携如锹去生绪盯萍栏潮碧恢栗睛果舅呈灶亏煎阀啄逢捞</text>
	<text x="0" y="1539">游刑肢驼遮腥番冠把宙类辈沫困吐速薄场泳尿肉沙固堤托锈季贷逗符搜暂纪颤拉疏阶姐租券漠必</text>
	<text x="0" y="1580">蜓舌试所河准要余召础响绑描崭徒榆也才筛较评隆胃著贤业波烟低鼻揪扑割俊扇趋输邪秩舱贯脸</text>
	<text x="0" y="1629">秘者腿孕除筝历号眨软污握锯蛋乙汗天紧指兵鱼基赵镜馆锁殖冰夸赢喷我姻北拿胆七轨蝇辅百醉</text>
	<text x="0" y="1660">零疮没注恭毁图释什办师晴匀水肌助忘功卖热签备灰刘辛土十踪墨花阴当怎缎煤碍狭连习温况距</text>
	<text x="0" y="1692">庭录抖兔兄虫队驱瓦娇幻慌腔繁纵力同惕器互拼炭罗械美烫累填灭活料陵适用哨王拌症贴染雕财</text>
	<text x="0" y="1737">央行棚油伶牵纯您愿胀槐魂开耽樱灌沾算虽暗恶稳看惭与潜咳负乞青墓捷贪慈粥唯责蹦掏咬怕盾</text>
	<text x="0" y="1779">门每续僻忆目案八阳纳辆碗筒袍肝跨付旱误郊访愁颠裙内译璃走蚊举棉侮堆际晓险浓递已疲史垫</text>
	<text x="0" y="1821">掘侵句析良犹茎巩胶含趁话羞时扔未映斥员醒动唤趴柔参洋卧控造驰蚁饺父惑询救籍宝衡偿敲港</text>
	<text x="0" y="1871">锅御样斩屿杆受汇挺努强悬命换死烈抬坏饶绢哗膛议能胸砍倡房群术岁躁圈恳巡吵哪丈材咸明爱</text>
	<text x="0" y="1915">诸可上徐蒙获悄抢失许患寻昆黄票秃发裤朗亭饥总竭齐嗽巧坊采分扣榴塘萄草篮添嚷书膨烛暮唐</text>
	<text x="0" y="1964">泛派联信丑净健骄骨违驴纤桶嫂事播他捡混幅骗像圾交欢雹将劲奏座苗垮夜秆吗垃躺脱突复肆拘</text>
	<text x="0" y="1998">仗娃蒜诊设喜露横乃货晒跃借亮婚债绞威拣词浩滥钓陈勿手殃变须项退炉夏靠苍公踢气酱奉超稻</text>
	<text x="0" y="2030">宜协薪饰燃确丹捉袄驳晶橡提乓审衣赛侧熊迟赞葡剪暑欺奥挡病的郎忽击更午林催品滑纺叙丛女</text>
	<text x="0" y="2076">纹塔窗范乘呆蜘佣刀浴涛舰厕皮坝增疆似雾拦单幸盲片弯优究慎弓舒制效擦盟钞雷筋罢页嫩么套</text>
	<text x="0" y="2123">蔽经思桃箩额旦饿园情厉熔霜秤竖躬遍辫从高敌扶闲揭筑饼笑硬哈拍辨誓焰弹婆至囊欣壤滩拜愈</text>
	<text x="0" y="2164">寨简了酿橘克宰甘俭衬悟拳漫鸟不多附少卜键茧居率裁狡惯包迅摔搏遣矩排万螺愧殊职但税针转</text>
	<text x="0" y="2201">浪导绵猪耐铁限凶博入芬粮标顶笋妙禽升掌例盛滋川冤壶西饮义铲剃商格滨深售宫唱进件合机挎</text>
	<text x="0" y="2245">趣食庆怀知笛迁触陡价吊渡暖丁临策只怠船精抹屋涝照息淋布勇脊跳大勾邻鸡扒败翻冲熟洒慕宏</text>
	<text x="0" y="2279">廉饱鸭赚六棍远糠艇认瓜反晃剩昼农塌缸纲畏尚叶茅倦贼逼胜唉抚梯闭厂使识饲板堵茶供辩翼悦</text>
	<text x="0" y="2310">蚂订谜周快葛停贺粗溉肾域前蕉拆镇欲坚残察讲勺枯疑驻锣概嘉鲜头底贝墙舞坛碑巾该右端某旋</text>
	<text x="0" y="2354">任希钩桐钥峰觉侍闪虎艳彩定离凑匪秒喊象就劝婶有津阿州及着稿艰伙寸系村奔部严龄垂挪危飞</text>
	<text x="0" y="2385">恰堪闹仓运妹溪傻题沈喉括期雀炸藏方争谋细倘狗仍骤蛛洽谅防葵狂应咏戴惜废恒罐背树九望丰</text>
	<text x="0" y="2435">皆宅监惧蹈鸣垒屠欧敬帖惠慰闷芒碌销值荣蝴谢</text>
</svg>